HIERARCHY
ROOT Hips
{
  OFFSET 0.000 77.780 0.000
  CHANNELS 6 Xposition Yposition Zposition Zrotation Xrotation Yrotation
  JOINT LeftUpLeg
  {
    OFFSET 6.388 -0.002 2.902
    CHANNELS 6 Xposition Yposition Zposition Zrotation Xrotation Yrotation
    JOINT LeftLeg
    {
      OFFSET 0.000 -37.999 0.000
      CHANNELS 6 Xposition Yposition Zposition Zrotation Xrotation Yrotation
      JOINT LeftFoot
      {
        OFFSET 0.000 -39.779 0.000
        CHANNELS 6 Xposition Yposition Zposition Zrotation Xrotation Yrotation
        End Site
        {
          OFFSET 0.000 0.000 11.391
        }
      }
    }
  }
  JOINT RightUpLeg
  {
    OFFSET -6.388 -0.002 2.902
    CHANNELS 6 Xposition Yposition Zposition Zrotation Xrotation Yrotation
    JOINT RightLeg
    {
      OFFSET 0.000 -37.999 0.000
      CHANNELS 6 Xposition Yposition Zposition Zrotation Xrotation Yrotation
      JOINT RightFoot
      {
        OFFSET 0.000 -39.779 0.000
        CHANNELS 6 Xposition Yposition Zposition Zrotation Xrotation Yrotation
        End Site
        {
          OFFSET 0.000 0.000 11.391
        }
      }
    }
  }
  JOINT Spine
  {
    OFFSET 0.000 34.300 0.000
    CHANNELS 6 Xposition Yposition Zposition Zrotation Xrotation Yrotation
    JOINT Spine1
    {
      OFFSET 0.000 25.000 0.000
      CHANNELS 6 Xposition Yposition Zposition Zrotation Xrotation Yrotation
      JOINT LeftShoulder
      {
        OFFSET 1.800 -0.600 0.200
        CHANNELS 6 Xposition Yposition Zposition Zrotation Xrotation Yrotation
        JOINT LeftArm
        {
          OFFSET 15.300 0.000 0.000
          CHANNELS 6 Xposition Yposition Zposition Zrotation Xrotation Yrotation
          JOINT LeftForeArm
          {
            OFFSET 22.206 0.000 0.000
            CHANNELS 6 Xposition Yposition Zposition Zrotation Xrotation Yrotation
            JOINT LeftHand
            {
              OFFSET 24.530 0.000 0.000
              CHANNELS 6 Xposition Yposition Zposition Zrotation Xrotation Yrotation
              JOINT LeftHandThumb1
              {
                OFFSET 0.000 -0.000 0.000
                CHANNELS 6 Xposition Yposition Zposition Zrotation Xrotation Yrotation
                JOINT LeftHandThumb2
                {
                  OFFSET 0.000 -0.000 0.000
                  CHANNELS 6 Xposition Yposition Zposition Zrotation Xrotation Yrotation
                  JOINT LeftHandThumb3
                  {
                    OFFSET 0.000 -0.000 0.000
                    CHANNELS 6 Xposition Yposition Zposition Zrotation Xrotation Yrotation
                    End Site
                    {
                      OFFSET 0.000 -0.000 0.000
                    }
                  }
                }
              }
              JOINT LeftHandIndex1
              {
                OFFSET 0.000 -0.000 0.000
                CHANNELS 6 Xposition Yposition Zposition Zrotation Xrotation Yrotation
                JOINT LeftHandIndex2
                {
                  OFFSET 0.000 -0.000 0.000
                  CHANNELS 6 Xposition Yposition Zposition Zrotation Xrotation Yrotation
                  JOINT LeftHandIndex3
                  {
                    OFFSET 0.000 -0.000 0.000
                    CHANNELS 6 Xposition Yposition Zposition Zrotation Xrotation Yrotation
                    End Site
                    {
                      OFFSET 0.000 -0.000 0.000
                    }
                  }
                }
              }
              JOINT LeftHandMiddle1
              {
                OFFSET 0.000 -0.000 0.000
                CHANNELS 6 Xposition Yposition Zposition Zrotation Xrotation Yrotation
                JOINT LeftHandMiddle2
                {
                  OFFSET 0.000 -0.000 0.000
                  CHANNELS 6 Xposition Yposition Zposition Zrotation Xrotation Yrotation
                  JOINT LeftHandMiddle3
                  {
                    OFFSET 0.000 -0.000 0.000
                    CHANNELS 6 Xposition Yposition Zposition Zrotation Xrotation Yrotation
                    End Site
                    {
                      OFFSET 0.000 -0.000 0.000
                    }
                  }
                }
              }
              JOINT LeftHandRing1
              {
                OFFSET 0.000 -0.000 0.000
                CHANNELS 6 Xposition Yposition Zposition Zrotation Xrotation Yrotation
                JOINT LeftHandRing2
                {
                  OFFSET 0.000 -0.000 0.000
                  CHANNELS 6 Xposition Yposition Zposition Zrotation Xrotation Yrotation
                  JOINT LeftHandRing3
                  {
                    OFFSET 0.000 -0.000 0.000
                    CHANNELS 6 Xposition Yposition Zposition Zrotation Xrotation Yrotation
                    End Site
                    {
                      OFFSET 0.000 -0.000 0.000
                    }
                  }
                }
              }
              JOINT LeftHandPinky1
              {
                OFFSET 0.000 -0.000 0.000
                CHANNELS 6 Xposition Yposition Zposition Zrotation Xrotation Yrotation
                JOINT LeftHandPinky2
                {
                  OFFSET 0.000 -0.000 0.000
                  CHANNELS 6 Xposition Yposition Zposition Zrotation Xrotation Yrotation
                  JOINT LeftHandPinky3
                  {
                    OFFSET 0.000 -0.000 0.000
                    CHANNELS 6 Xposition Yposition Zposition Zrotation Xrotation Yrotation
                    End Site
                    {
                      OFFSET 0.000 -0.000 0.000
                    }
                  }
                }
              }
            }
          }
        }
      }
      JOINT RightShoulder
      {
        OFFSET -1.800 -0.600 0.200
        CHANNELS 6 Xposition Yposition Zposition Zrotation Xrotation Yrotation
        JOINT RightArm
        {
          OFFSET -15.300 0.000 0.000
          CHANNELS 6 Xposition Yposition Zposition Zrotation Xrotation Yrotation
          JOINT RightForeArm
          {
            OFFSET -22.206 0.000 0.000
            CHANNELS 6 Xposition Yposition Zposition Zrotation Xrotation Yrotation
            JOINT RightHand
            {
              OFFSET -24.530 0.000 0.000
              CHANNELS 6 Xposition Yposition Zposition Zrotation Xrotation Yrotation
              JOINT RightHandThumb1
              {
                OFFSET -0.000 0.000 0.000
                CHANNELS 6 Xposition Yposition Zposition Zrotation Xrotation Yrotation
                JOINT RightHandThumb2
                {
                  OFFSET -0.000 0.000 0.000
                  CHANNELS 6 Xposition Yposition Zposition Zrotation Xrotation Yrotation
                  JOINT RightHandThumb3
                  {
                    OFFSET -0.000 0.000 0.000
                    CHANNELS 6 Xposition Yposition Zposition Zrotation Xrotation Yrotation
                    End Site
                    {
                      OFFSET -0.000 0.000 0.000
                    }
                  }
                }
              }
              JOINT RightHandIndex1
              {
                OFFSET -0.000 0.000 0.000
                CHANNELS 6 Xposition Yposition Zposition Zrotation Xrotation Yrotation
                JOINT RightHandIndex2
                {
                  OFFSET -0.000 0.000 0.000
                  CHANNELS 6 Xposition Yposition Zposition Zrotation Xrotation Yrotation
                  JOINT RightHandIndex3
                  {
                    OFFSET -0.000 0.000 0.000
                    CHANNELS 6 Xposition Yposition Zposition Zrotation Xrotation Yrotation
                    End Site
                    {
                      OFFSET -0.000 0.000 0.000
                    }
                  }
                }
              }
              JOINT RightHandMiddle1
              {
                OFFSET -0.000 0.000 0.000
                CHANNELS 6 Xposition Yposition Zposition Zrotation Xrotation Yrotation
                JOINT RightHandMiddle2
                {
                  OFFSET -0.000 0.000 0.000
                  CHANNELS 6 Xposition Yposition Zposition Zrotation Xrotation Yrotation
                  JOINT RightHandMiddle3
                  {
                    OFFSET -0.000 0.000 0.000
                    CHANNELS 6 Xposition Yposition Zposition Zrotation Xrotation Yrotation
                    End Site
                    {
                      OFFSET -0.000 0.000 0.000
                    }
                  }
                }
              }
              JOINT RightHandRing1
              {
                OFFSET -0.000 0.000 0.000
                CHANNELS 6 Xposition Yposition Zposition Zrotation Xrotation Yrotation
                JOINT RightHandRing2
                {
                  OFFSET -0.000 0.000 0.000
                  CHANNELS 6 Xposition Yposition Zposition Zrotation Xrotation Yrotation
                  JOINT RightHandRing3
                  {
                    OFFSET -0.000 0.000 0.000
                    CHANNELS 6 Xposition Yposition Zposition Zrotation Xrotation Yrotation
                    End Site
                    {
                      OFFSET -0.000 0.000 0.000
                    }
                  }
                }
              }
              JOINT RightHandPinky1
              {
                OFFSET -0.000 0.000 0.000
                CHANNELS 6 Xposition Yposition Zposition Zrotation Xrotation Yrotation
                JOINT RightHandPinky2
                {
                  OFFSET -0.000 0.000 0.000
                  CHANNELS 6 Xposition Yposition Zposition Zrotation Xrotation Yrotation
                  JOINT RightHandPinky3
                  {
                    OFFSET -0.000 0.000 0.000
                    CHANNELS 6 Xposition Yposition Zposition Zrotation Xrotation Yrotation
                    End Site
                    {
                      OFFSET -0.000 0.000 0.000
                    }
                  }
                }
              }
            }
          }
        }
      }
      JOINT Neck
      {
        OFFSET 0.000 0.800 0.000
        CHANNELS 6 Xposition Yposition Zposition Zrotation Xrotation Yrotation
        JOINT Head
        {
          OFFSET 0.000 7.300 0.000
          CHANNELS 6 Xposition Yposition Zposition Zrotation Xrotation Yrotation
          End Site
          {
            OFFSET 0.000 15.100 0.000
          }
        }
      }
    }
  }
}
MOTION
Frames:	4
Frame Time:	0.033333
-3.86710 4.93799 -228.03528 -8.54629 3.07465 26.91793 4.96641 3.36881 2.63381 102.32198 -70.49030 81.95374 -0.00002 -36.31118 0.00001 -133.95117 -4.82263 50.74567 -0.00001 -44.31301 -0.00005 13.51055 -31.77041 24.52941 -8.06511 0.17414 2.63381 -140.12646 -84.27156 -160.17039 0.00000 -37.08020 0.00000 114.60910 7.40528 -34.57333 -0.00001 -31.79280 0.00000 -75.37623 -47.92780 -79.03845 0.00000 23.05772 0.00000 1.25208 2.12986 1.97361 -0.00001 17.34368 0.00000 1.64980 2.59421 1.92360 1.63898 0.07006 0.06487 2.44344 -0.09680 -2.26411 14.77611 0.00000 0.00002 -30.62249 -9.11582 20.94110 26.32198 0.00000 -0.00001 -8.84614 16.69017 -72.46790 22.34521 -0.00010 0.00002 98.12755 4.53292 -69.36732 4.87701 -1.04401 3.60801 -41.57595 -8.45725 -7.72882 2.66500 -0.00001 -0.00001 0.00000 -0.00000 5.00000 2.54301 0.00000 -0.00001 -0.00000 -0.00000 60.00000 9.23201 -0.30102 2.14401 -80.00000 -0.00000 0.00000 4.22498 -0.00001 -0.00002 -90.00000 -0.00000 -0.00000 2.65399 0.00000 0.00001 -70.00000 -0.00000 0.00000 8.91999 -0.00001 0.00000 -80.00000 -0.00000 0.00000 4.86300 0.00000 0.00000 -90.00000 -0.00000 -0.00000 2.76498 -0.00001 -0.00001 -70.00000 -0.00000 0.00000 8.68900 -0.12600 -2.08700 -80.00000 -0.00000 0.00000 4.53800 0.00001 0.00001 -90.00000 -0.00000 -0.00000 2.30500 0.00000 0.00000 -70.00000 -0.00000 0.00000 8.39100 -0.81701 -3.75800 -80.00000 -0.00000 0.00000 3.04397 -0.00002 -0.00002 -90.00000 -0.00000 -0.00000 1.97498 0.00001 0.00004 -70.00000 -0.00000 0.00000 -1.33911 -0.43046 0.06489 17.78152 0.84734 2.64045 -12.67269 0.00000 0.00001 38.82927 -41.26630 -6.94830 -23.83147 0.00001 0.00000 66.19318 20.87497 44.87566 -29.32651 0.00000 -0.00002 4.89457 -0.04004 -4.39940 -4.87701 -1.04400 3.60801 40.90540 11.75460 -3.91033 -2.66500 -0.00002 -0.00002 -0.00000 -0.00000 -5.00000 -2.54300 0.00001 0.00002 -0.00000 -0.00000 -60.00001 -9.23202 -0.30099 2.14400 -2.00000 0.00000 0.00000 -4.22498 -0.00001 -0.00001 -2.00000 -0.00000 -0.00001 -2.65399 0.00000 0.00000 -2.00000 0.00000 0.00000 -8.92003 0.00001 0.00000 80.00000 -0.00000 0.00001 -4.86301 -0.00001 -0.00001 90.00000 -0.00000 0.00000 -2.76499 -0.00001 0.00002 70.00000 -0.00001 0.00001 -8.68900 -0.12600 -2.08701 80.00000 -0.00000 0.00001 -4.53799 0.00000 0.00001 90.00000 -0.00000 0.00000 -2.30500 0.00000 0.00000 70.00000 -0.00001 0.00001 -8.39100 -0.81700 -3.75799 -2.00000 0.00000 0.00000 -3.04401 0.00001 -0.00001 -2.00000 -0.00000 -0.00001 -1.97500 0.00000 0.00000 -2.00000 0.00000 0.00000 -0.00193 0.58466 0.00165 -0.00867 -0.00230 -0.00888 0.00000 5.26187 -0.00042 3.60223 -0.02668 -29.21763 
-1.96584 -3.49131 -230.24507 -12.22039 3.07479 30.70918 4.81161 3.45206 2.23935 -179.90179 -66.49699 -177.19354 0.03535 -31.76222 -0.01604 -106.21542 13.17341 93.47974 0.00142 -33.41951 -0.00732 8.87570 -29.69504 17.49664 -8.18980 -0.06863 2.23731 -140.65225 -64.99725 -129.68417 0.00396 -34.43655 0.00286 123.90294 -27.16041 -58.40045 -0.00154 -26.37715 0.00187 -50.49481 -61.79897 -53.99459 0.00208 25.93491 0.00156 1.25591 1.66965 1.32402 0.00124 19.48747 0.00137 1.60441 2.03020 1.31131 1.78009 0.41103 0.02627 12.96367 -0.18163 -0.82563 16.44542 0.00102 0.00127 -38.99986 6.95720 12.00855 25.25696 -0.00233 -0.00430 -5.25023 1.68589 -61.16247 21.39809 -0.00010 -0.00087 31.69843 -9.31925 -49.09519 4.87701 -1.04401 3.60801 -41.57595 -8.45725 -7.72882 2.66500 -0.00001 -0.00001 0.00000 -0.00000 5.00000 2.54301 0.00000 -0.00001 -0.00000 -0.00000 60.00000 9.23201 -0.30102 2.14401 -80.00000 -0.00000 0.00000 4.22498 -0.00001 -0.00002 -90.00000 -0.00000 -0.00000 2.65399 0.00000 0.00001 -70.00000 -0.00000 0.00000 8.91999 -0.00001 0.00000 -80.00000 -0.00000 0.00000 4.86300 0.00000 0.00000 -90.00000 -0.00000 -0.00000 2.76498 -0.00001 -0.00001 -70.00000 -0.00000 0.00000 8.68900 -0.12600 -2.08700 -80.00000 -0.00000 0.00000 4.53800 0.00001 0.00001 -90.00000 -0.00000 -0.00000 2.30500 0.00000 0.00000 -70.00000 -0.00000 0.00000 8.39100 -0.81701 -3.75800 -80.00000 -0.00000 0.00000 3.04397 -0.00002 -0.00002 -90.00000 -0.00000 -0.00000 1.97498 0.00001 0.00004 -70.00000 -0.00000 0.00000 -1.38838 -0.22601 0.02588 9.23838 0.18664 1.06258 -12.63008 -0.00063 -0.00281 60.46818 -6.78350 -0.72855 -21.61334 -0.00292 -0.00331 41.34370 16.62297 76.90764 -29.58132 0.01167 -0.02808 -38.67257 12.48951 3.95708 -4.87701 -1.04400 3.60801 40.90540 11.75460 -3.91033 -2.66500 -0.00002 -0.00002 -0.00000 -0.00000 -5.00000 -2.54300 0.00001 0.00002 -0.00000 -0.00000 -60.00001 -9.23202 -0.30099 2.14400 -2.00000 0.00000 0.00000 -4.22498 -0.00001 -0.00001 -2.00000 -0.00000 -0.00001 -2.65399 0.00000 0.00000 -2.00000 0.00000 0.00000 -8.92003 0.00001 0.00000 80.00000 -0.00000 0.00001 -4.86301 -0.00001 -0.00001 90.00000 -0.00000 0.00000 -2.76499 -0.00001 0.00002 70.00000 -0.00001 0.00001 -8.68900 -0.12600 -2.08701 80.00000 -0.00000 0.00001 -4.53799 0.00000 0.00001 90.00000 -0.00000 0.00000 -2.30500 0.00000 0.00000 70.00000 -0.00001 0.00001 -8.39100 -0.81700 -3.75799 -2.00000 0.00000 0.00000 -3.04401 0.00001 -0.00001 -2.00000 -0.00000 -0.00001 -1.97500 0.00000 0.00000 -2.00000 0.00000 0.00000 -0.00193 0.65485 0.00165 -0.00867 -0.00230 -0.00888 -0.00197 5.89358 -0.00042 13.75882 1.89392 -31.03463 
-1.27972 -2.34454 -233.45650 -14.03939 5.89423 29.65994 4.85149 3.22511 2.15964 -166.88901 -64.87523 -154.69598 -1.23626 -33.32475 0.56742 -102.43881 24.19454 94.89198 -0.05218 -31.49456 0.25396 10.20462 -33.66486 17.99380 -8.17814 0.26084 2.23027 -144.30684 -62.45551 -130.12526 -0.13697 -36.42714 -0.10593 127.09201 -27.69240 -58.95717 0.05307 -26.41142 -0.06358 -49.11544 -60.02880 -53.22533 -0.07189 25.41360 -0.05369 1.27309 1.57244 1.84226 -0.04212 19.14529 -0.04823 1.62563 1.92066 1.77548 1.73139 0.38914 0.07188 12.66272 -0.54793 -2.35547 16.21354 -0.03850 -0.04223 -37.87268 3.24934 9.36488 25.79314 0.08085 0.15127 -4.64370 1.30359 -55.38533 21.14595 0.00394 0.03409 29.05372 -12.08605 -44.72590 4.87701 -1.04401 3.60801 -41.57595 -8.45725 -7.72882 2.66500 -0.00001 -0.00001 0.00000 -0.00000 5.00000 2.54301 0.00000 -0.00001 -0.00000 -0.00000 60.00000 9.23201 -0.30102 2.14401 -80.00000 -0.00000 0.00000 4.22498 -0.00001 -0.00002 -90.00000 -0.00000 -0.00000 2.65399 0.00000 0.00001 -70.00000 -0.00000 0.00000 8.91999 -0.00001 0.00000 -80.00000 -0.00000 0.00000 4.86300 0.00000 0.00000 -90.00000 -0.00000 -0.00000 2.76498 -0.00001 -0.00001 -70.00000 -0.00000 0.00000 8.68900 -0.12600 -2.08700 -80.00000 -0.00000 0.00000 4.53800 0.00001 0.00001 -90.00000 -0.00000 -0.00000 2.30500 0.00000 0.00000 -70.00000 -0.00000 0.00000 8.39100 -0.81701 -3.75800 -80.00000 -0.00000 0.00000 3.04397 -0.00002 -0.00002 -90.00000 -0.00000 -0.00000 1.97498 0.00001 0.00004 -70.00000 -0.00000 0.00000 -1.32479 -0.06634 0.08559 3.38008 0.20516 3.23324 -13.17088 0.02100 0.09886 68.27166 -10.34603 9.98925 -20.87920 0.10390 0.11572 29.81806 9.51271 67.47836 -26.77118 -0.41576 0.98427 -26.21883 19.51300 0.48081 -4.87701 -1.04400 3.60801 40.90540 11.75460 -3.91033 -2.66500 -0.00002 -0.00002 -0.00000 -0.00000 -5.00000 -2.54300 0.00001 0.00002 -0.00000 -0.00000 -60.00001 -9.23202 -0.30099 2.14400 -2.00000 0.00000 0.00000 -4.22498 -0.00001 -0.00001 -2.00000 -0.00000 -0.00001 -2.65399 0.00000 0.00000 -2.00000 0.00000 0.00000 -8.92003 0.00001 0.00000 80.00000 -0.00000 0.00001 -4.86301 -0.00001 -0.00001 90.00000 -0.00000 0.00000 -2.76499 -0.00001 0.00002 70.00000 -0.00001 0.00001 -8.68900 -0.12600 -2.08701 80.00000 -0.00000 0.00001 -4.53799 0.00000 0.00001 90.00000 -0.00000 0.00000 -2.30500 0.00000 0.00000 70.00000 -0.00001 0.00001 -8.39100 -0.81700 -3.75799 -2.00000 0.00000 0.00000 -3.04401 0.00001 -0.00001 -2.00000 -0.00000 -0.00001 -1.97500 0.00000 0.00000 -2.00000 0.00000 0.00000 -0.00193 0.64496 0.00165 -0.00867 -0.00230 -0.00888 0.06738 5.80488 -0.00042 14.00200 0.32021 -25.94814 
-0.04637 0.16234 -235.74338 -16.85995 7.91705 29.64412 4.98268 2.70636 1.99049 -154.30710 -62.66196 -137.53281 -1.84411 -35.30698 0.46151 -101.86066 31.21471 94.21744 0.07626 -30.27446 0.41985 13.39940 -39.17273 20.43773 -8.36186 0.72300 2.15547 -133.66286 -61.31400 -119.10423 -0.29550 -35.68631 0.17648 135.99689 -25.03826 -51.18927 0.10018 -26.63275 -0.17049 -51.61938 -58.58331 -55.80584 -0.13350 24.58585 -0.12340 1.27478 1.48360 1.23486 -0.11023 18.54972 -0.09760 1.61729 1.84645 1.19823 1.62989 0.26993 0.06583 8.94503 -0.31200 -3.02665 15.22723 0.11448 -0.20448 -29.65160 -0.60792 7.08497 26.18082 0.15643 0.19696 -5.06538 2.56145 -47.64264 21.75972 0.15496 -0.10731 25.31351 -11.44845 -34.61250 4.87701 -1.04401 3.60801 -41.57595 -8.45725 -7.72882 2.66500 -0.00001 -0.00001 0.00000 -0.00000 5.00000 2.54301 0.00000 -0.00001 -0.00000 -0.00000 60.00000 9.23201 -0.30102 2.14401 -80.00000 -0.00000 0.00000 4.22498 -0.00001 -0.00002 -90.00000 -0.00000 -0.00000 2.65399 0.00000 0.00001 -70.00000 -0.00000 0.00000 8.91999 -0.00001 0.00000 -80.00000 -0.00000 0.00000 4.86300 0.00000 0.00000 -90.00000 -0.00000 -0.00000 2.76498 -0.00001 -0.00001 -70.00000 -0.00000 0.00000 8.68900 -0.12600 -2.08700 -80.00000 -0.00000 0.00000 4.53800 0.00001 0.00001 -90.00000 -0.00000 -0.00000 2.30500 0.00000 0.00000 -70.00000 -0.00000 0.00000 8.39100 -0.81701 -3.75800 -80.00000 -0.00000 0.00000 3.04397 -0.00002 -0.00002 -90.00000 -0.00000 -0.00000 1.97498 0.00001 0.00004 -70.00000 -0.00000 0.00000 -1.36320 -0.00404 0.10576 1.60021 0.22801 3.85262 -13.53981 0.09163 0.09533 69.61393 -10.44574 19.05842 -20.73019 0.05586 0.17321 22.38012 6.04562 59.26782 -25.18210 -0.16874 1.30048 -14.24197 27.31036 6.05389 -4.87701 -1.04400 3.60801 40.90540 11.75460 -3.91033 -2.66500 -0.00002 -0.00002 -0.00000 -0.00000 -5.00000 -2.54300 0.00001 0.00002 -0.00000 -0.00000 -60.00001 -9.23202 -0.30099 2.14400 -2.00000 0.00000 0.00000 -4.22498 -0.00001 -0.00001 -2.00000 -0.00000 -0.00001 -2.65399 0.00000 0.00000 -2.00000 0.00000 0.00000 -8.92003 0.00001 0.00000 80.00000 -0.00000 0.00001 -4.86301 -0.00001 -0.00001 90.00000 -0.00000 0.00000 -2.76499 -0.00001 0.00002 70.00000 -0.00001 0.00001 -8.68900 -0.12600 -2.08701 80.00000 -0.00000 0.00001 -4.53799 0.00000 0.00001 90.00000 -0.00000 0.00000 -2.30500 0.00000 0.00000 70.00000 -0.00001 0.00001 -8.39100 -0.81700 -3.75799 -2.00000 0.00000 0.00000 -3.04401 0.00001 -0.00001 -2.00000 -0.00000 -0.00001 -1.97500 0.00000 0.00000 -2.00000 0.00000 0.00000 -0.00193 0.62594 0.00165 -0.00867 -0.00230 -0.00888 0.13415 5.66583 -0.00042 13.70300 -1.53675 -20.64756 
